# xmcd
#
# Track frame offsets: 
#        155
#        23904
#        41979
#        68728
#        81614
#        104683
#        123687
#        126979
#        140988
#        155386
#        180324
#        207266
#
# Disc length: 2848 seconds
#
# Revision: 0
# Processed by: cddbd v1.5.2PL0 Copyright (c) Steve Scherf et al.
# Submitted via: ExactAudioCopy v1.0b1
#
DISCID=ba0b1e0c
DTITLE=Blackbirds - Blackbirds
DYEAR=2010
DGENRE=Blues
TTITLE0=Just be good to me
TTITLE1=Nature boy
TTITLE2=Waiting in vain
TTITLE3=Chebo
TTITLE4=I shall be released
TTITLE5=Malaika
TTITLE6=Give thanks
TTITLE7=Use somebody
TTITLE8=Want you bad
TTITLE9=Glory box
TTITLE10=Mack the knife
TTITLE11=This is a sound check
EXTD=
EXTT0=
EXTT1=
EXTT2=
EXTT3=
EXTT4=
EXTT5=
EXTT6=
EXTT7=
EXTT8=
EXTT9=
EXTT10=
EXTT11=
PLAYORDER=
